HIERARCHY
ROOT Hips
{
	OFFSET 4.076200 -17.275196 43.303001
	CHANNELS 6 Xposition Yposition Zposition Zrotation Xrotation Yrotation
	JOINT Chest
	{
		OFFSET -0.689800 0.941999 5.341000
		CHANNELS 6 Xposition Yposition Zposition Zrotation Xrotation Yrotation
		JOINT Chest2
		{
			OFFSET 0.000000 0.000000 4.278900
			CHANNELS 6 Xposition Yposition Zposition Zrotation Xrotation Yrotation
			JOINT Neck
			{
				OFFSET 0.000000 0.000000 9.970299
				CHANNELS 6 Xposition Yposition Zposition Zrotation Xrotation Yrotation
				JOINT Head
				{
					OFFSET 0.000000 0.000002 2.173901
					CHANNELS 6 Xposition Yposition Zposition Zrotation Xrotation Yrotation
					End Site
					{
						OFFSET 0.000000 0.000000 6.488197
					}
				}
			}
			JOINT LeftCollar
			{
				OFFSET 2.472300 -0.285801 5.433899
				CHANNELS 6 Xposition Yposition Zposition Zrotation Xrotation Yrotation
				JOINT LeftShoulder
				{
					OFFSET 5.327700 0.000000 0.000000
					CHANNELS 6 Xposition Yposition Zposition Zrotation Xrotation Yrotation
					JOINT LeftElbow
					{
						OFFSET 0.000000 0.000000 -10.713001
						CHANNELS 6 Xposition Yposition Zposition Zrotation Xrotation Yrotation
						JOINT LeftWrist
						{
							OFFSET 0.000000 -0.000002 -13.396900
							CHANNELS 6 Xposition Yposition Zposition Zrotation Xrotation Yrotation
							End Site
							{
								OFFSET 0.000000 0.000000 -2.173901
							}
						}
					}
				}
			}
			JOINT RightCollar
			{
				OFFSET -2.589400 -1.358400 6.105000
				CHANNELS 6 Xposition Yposition Zposition Zrotation Xrotation Yrotation
				JOINT RightShoulder
				{
					OFFSET -4.580200 0.000000 0.000000
					CHANNELS 6 Xposition Yposition Zposition Zrotation Xrotation Yrotation
					JOINT RightElbow
					{
						OFFSET 0.000000 0.000000 -10.761101
						CHANNELS 6 Xposition Yposition Zposition Zrotation Xrotation Yrotation
						JOINT RightWrist
						{
							OFFSET 0.000000 -0.000002 -13.028500
							CHANNELS 6 Xposition Yposition Zposition Zrotation Xrotation Yrotation
							End Site
							{
								OFFSET 0.000000 0.000000 -2.173901
							}
						}
					}
				}
			}
		}
	}
	JOINT LeftHip
	{
		OFFSET 2.532500 0.486900 -2.489700
		CHANNELS 6 Xposition Yposition Zposition Zrotation Xrotation Yrotation
		JOINT LeftKnee
		{
			OFFSET 0.000000 -0.000002 -18.199398
			CHANNELS 6 Xposition Yposition Zposition Zrotation Xrotation Yrotation
			JOINT LeftAnkle
			{
				OFFSET 0.000000 -0.000002 -16.083900
				CHANNELS 6 Xposition Yposition Zposition Zrotation Xrotation Yrotation
				End Site
				{
					OFFSET 0.000000 -8.641399 0.000000
				}
			}
		}
	}
	JOINT RightHip
	{
		OFFSET -2.112700 -0.049900 -2.711102
		CHANNELS 6 Xposition Yposition Zposition Zrotation Xrotation Yrotation
		JOINT RightKnee
		{
			OFFSET 0.000000 -0.000002 -19.127298
			CHANNELS 6 Xposition Yposition Zposition Zrotation Xrotation Yrotation
			JOINT RightAnkle
			{
				OFFSET 0.000000 -0.000002 -14.874901
				CHANNELS 6 Xposition Yposition Zposition Zrotation Xrotation Yrotation
				End Site
				{
					OFFSET 0.000000 -8.198299 0.000000
				}
			}
		}
	}
}
MOTION
Frames: 7
Frame Time: 0.041667
47.199589 -64.541901 38.927204 -86.897710 5.780566 2.678383 -0.689804 0.941999 5.340996 -1.466205 -5.116374 2.709016 -0.000002 0.000006 4.278897 1.146421 0.368290 0.180664 0.000002 0.000005 9.970297 -5.605902 8.989999 -7.516206 0.000005 -0.000002 2.173889 0.931631 -0.909709 0.185494 2.472308 -0.285800 5.433896 -13.202126 5.143764 -15.597936 5.327707 -0.000002 0.000004 -28.463995 -44.455444 -42.073614 0.000004 -0.000003 -10.712996 30.300003 -41.224440 71.636322 -0.000004 -0.000004 -13.396900 -72.740435 1.539731 -96.041271 -2.589400 -1.358389 6.105003 10.848068 -2.927529 -1.154830 -4.580199 0.000003 -0.000002 35.980853 -26.533656 49.633506 -0.000005 0.000003 -10.761096 -57.912778 -51.214500 -87.021651 -0.000002 0.000001 -13.028501 -105.546169 1.920974 -146.169081 2.532492 0.486899 -2.489706 32.805166 -32.567264 5.115382 -0.000001 0.000003 -18.199402 -119.173728 56.259517 98.286484 -0.000002 -0.000006 -16.083897 -1.726364 51.668445 37.986975 -2.112712 -0.049903 -2.711107 -31.740787 -27.660055 -22.088531 -0.000002 0.000003 -19.127300 386.382381 72.147561 -373.876468 -0.000005 0.000000 -14.874902 -18.263998 12.380193 19.128367
47.127998 -64.531693 38.811996 -86.925413 6.019193 2.846406 -0.689796 0.941995 5.340993 -1.471586 -5.341492 2.632539 -0.000005 0.000000 4.278903 1.237229 0.376190 0.037185 -0.000009 -0.000002 9.970289 -5.739409 8.944547 -7.559745 0.000007 0.000007 2.173893 0.932611 -0.912547 0.139855 2.472295 -0.285801 5.433896 -13.361157 5.234988 -15.534137 5.327700 -0.000006 -0.000005 -28.663213 -44.466229 -42.251803 -0.000001 -0.000001 -10.712997 30.288532 -41.581256 71.496583 -0.000002 -0.000004 -13.396912 -72.372411 1.507170 -96.012154 -2.589411 -1.358395 6.104992 10.706095 -2.934940 -1.193068 -4.580199 -0.000001 -0.000002 36.160268 -26.423171 49.793466 -0.000004 -0.000002 -10.761106 -58.130108 -50.762147 -87.025394 0.000002 0.000007 -13.028498 -105.358591 1.895801 -146.317433 2.532506 0.486893 -2.489701 33.074197 -33.083374 5.513022 -0.000013 0.000005 -18.199394 -120.331636 56.188534 99.096633 -0.000000 -0.000008 -16.083908 -2.088945 51.887318 38.397011 -2.112701 -0.049906 -2.711107 -32.188984 -27.875370 -22.634296 0.000002 0.000007 -19.127298 388.116593 72.791327 -375.304005 -0.000001 -0.000004 -14.874897 -18.771530 12.119115 19.869304
47.049995 -64.517700 38.699402 -86.896870 6.124461 3.025587 -0.689811 0.941991 5.340995 -1.592020 -5.431457 2.532137 0.000008 0.000002 4.278903 1.257013 0.315063 0.177228 0.000012 -0.000007 9.970296 -5.753409 8.971976 -7.813018 -0.000004 0.000004 2.173897 0.966370 -0.937386 0.097712 2.472306 -0.285808 5.433896 -13.495116 5.584857 -15.604015 5.327704 -0.000007 -0.000000 -28.626752 -44.649001 -42.540617 0.000005 -0.000000 -10.712996 30.257485 -41.397524 71.500053 0.000003 -0.000003 -13.396902 -72.530462 1.416862 -96.067683 -2.589392 -1.358406 6.105003 10.870279 -2.949430 -1.654624 -4.580199 0.000005 -0.000003 36.325261 -26.014995 50.169751 0.000001 -0.000002 -10.761101 -58.651920 -50.474695 -87.206073 -0.000000 0.000005 -13.028496 -105.323737 1.868946 -146.496985 2.532494 0.486893 -2.489702 33.528306 -33.573119 5.991528 0.000003 0.000003 -18.199398 -121.820822 55.987952 100.013476 -0.000005 0.000001 -16.083900 -2.346658 52.113913 38.751690 -2.112705 -0.049905 -2.711106 -32.204800 -27.989338 -22.899813 -0.000006 0.000002 -19.127295 390.579477 73.174269 -377.632280 0.000002 -0.000004 -14.874903 -19.415356 11.854907 20.157937
46.969593 -64.504700 38.589302 -86.862152 6.285843 3.220990 -0.689809 0.942002 5.340995 -1.688375 -5.601569 2.399289 -0.000002 0.000004 4.278895 1.353741 0.356883 0.037378 0.000004 -0.000002 9.970295 -5.887705 8.910100 -7.795264 -0.000002 0.000003 2.173884 0.968531 -0.923497 0.102713 2.472303 -0.285805 5.433895 -13.624831 5.588675 -15.604303 5.327710 -0.000001 -0.000005 -28.678513 -44.678241 -42.563297 0.000008 0.000001 -10.712996 30.255976 -41.476467 71.470840 0.000003 -0.000006 -13.396889 -72.423774 1.436326 -96.065504 -2.589400 -1.358395 6.104996 10.731816 -2.956088 -1.541729 -4.580204 -0.000003 -0.000004 36.197568 -26.266244 50.099909 0.000003 -0.000004 -10.761096 -58.472047 -50.437395 -87.255359 -0.000003 -0.000004 -13.028494 -105.562097 1.817061 -146.583728 2.532495 0.486896 -2.489698 33.796770 -34.121392 6.423314 -0.000001 -0.000007 -18.199398 -123.176014 55.607801 100.908067 0.000001 -0.000010 -16.083900 -2.489223 52.112854 39.260043 -2.112708 -0.049905 -2.711105 -32.548676 -28.124310 -23.334163 0.000007 -0.000001 -19.127295 392.143263 73.720889 -379.028671 -0.000003 0.000001 -14.874901 -19.772054 11.646012 20.631017
46.888401 -64.492294 38.488499 -86.954285 6.346305 3.435796 -0.689818 0.941992 5.340995 -1.533812 -5.641180 2.275725 -0.000003 0.000005 4.278901 1.313472 0.339783 0.034621 -0.000001 -0.000002 9.970294 -5.986000 8.857007 -7.916030 -0.000005 -0.000008 2.173894 0.946446 -0.939346 0.083718 2.472309 -0.285797 5.433905 -13.688362 5.769725 -15.637503 5.327710 -0.000002 0.000001 -28.965251 -44.731151 -42.885361 -0.000007 -0.000002 -10.713003 30.448331 -41.359937 71.502682 0.000004 -0.000003 -13.396895 -72.498988 1.489877 -96.017864 -2.589401 -1.358398 6.105000 10.632052 -2.968402 -1.728159 -4.580206 0.000000 0.000000 36.286435 -26.144409 50.311897 0.000001 0.000000 -10.761110 -58.647255 -50.352701 -87.364875 0.000003 0.000009 -13.028505 -105.468202 1.810408 -146.678558 2.532490 0.486892 -2.489712 34.378825 -34.623923 6.912456 0.000004 0.000003 -18.199394 -124.650720 54.781932 101.707466 0.000004 0.000002 -16.083899 -2.354546 51.949787 40.182034 -2.112715 -0.049905 -2.711113 -32.610731 -28.148222 -23.580402 0.000001 0.000003 -19.127295 393.025149 74.091932 -380.009022 -0.000003 0.000005 -14.874900 -19.895709 11.419744 20.269102
46.803787 -64.475296 38.387199 -86.999371 6.463750 3.575007 -0.689804 0.941996 5.340994 -1.276647 -5.765670 2.295639 -0.000002 -0.000002 4.278895 1.088636 0.259031 0.167508 0.000001 0.000001 9.970304 -6.069262 8.878281 -8.177792 0.000000 -0.000004 2.173888 0.927733 -0.894198 0.130981 2.472304 -0.285803 5.433911 -13.672340 6.243636 -15.723046 5.327702 0.000004 -0.000001 -29.415869 -44.879848 -43.486769 0.000007 -0.000002 -10.712993 30.688460 -41.240030 71.558758 0.000003 -0.000000 -13.396893 -72.576846 1.447099 -96.016860 -2.589398 -1.358400 6.105009 10.658377 -2.935977 -2.330556 -4.580204 0.000002 -0.000002 36.474358 -25.785197 50.728799 0.000005 0.000000 -10.761097 -58.964265 -50.575321 -87.453995 -0.000005 -0.000001 -13.028497 -105.653949 1.879516 -146.943201 2.532493 0.486892 -2.489703 34.833340 -35.159174 7.446587 0.000002 0.000002 -18.199389 -125.964657 53.834957 102.453965 0.000000 -0.000003 -16.083904 -2.088259 51.744123 40.994966 -2.112705 -0.049908 -2.711103 -32.674522 -28.277478 -23.817373 0.000002 0.000005 -19.127293 392.787186 74.484647 -379.967248 0.000003 -0.000001 -14.874902 -20.066580 11.402812 20.476106
46.724701 -64.468094 38.299301 -87.278329 6.616616 3.739986 -0.689797 0.941994 5.340994 -1.064312 -5.973687 2.198200 -0.000008 0.000006 4.278899 1.078128 0.265553 0.165031 0.000007 -0.000007 9.970294 -6.116564 8.895142 -8.159297 0.000009 0.000004 2.173899 0.988061 -0.976918 0.123348 2.472304 -0.285809 5.433896 -13.668473 6.211263 -15.786654 5.327697 0.000001 0.000006 -29.286912 -44.923011 -43.382981 0.000003 -0.000006 -10.713000 30.709610 -41.076051 71.629615 -0.000001 -0.000007 -13.396900 -72.695616 1.469467 -96.063558 -2.589391 -1.358406 6.104995 10.628812 -2.903485 -2.336277 -4.580197 -0.000002 0.000000 36.349515 -25.984126 50.698671 -0.000003 0.000003 -10.761109 -58.824683 -50.832583 -87.491827 -0.000002 -0.000004 -13.028514 -105.892200 1.941397 -147.070966 2.532501 0.486896 -2.489697 35.648362 -35.738951 8.146785 -0.000002 0.000003 -18.199398 -127.486219 52.154491 102.979015 -0.000003 -0.000006 -16.083906 -1.756126 50.376170 44.048481 -2.112701 -0.049911 -2.711104 -32.717494 -28.402129 -24.157022 0.000003 0.000001 -19.127293 394.526534 74.849646 -381.533110 0.000002 -0.000004 -14.874905 -20.130687 10.988498 19.716518
